<mxfile host="app.diagrams.net" modified="2023-12-17T19:01:36.659Z" agent="Mozilla/5.0 (Windows NT 10.0; Win64; x64) AppleWebKit/537.36 (KHTML, like Gecko) Chrome/120.0.0.0 Safari/537.36" etag="pwXPQpDNXN635V3U_Vny" version="22.1.11" type="device">
  <diagram name="Trang-1" id="r4zbpAcLh9ksdDfQX0Jh">
    <mxGraphModel dx="2474" dy="2046" grid="1" gridSize="10" guides="1" tooltips="1" connect="1" arrows="1" fold="1" page="1" pageScale="1" pageWidth="827" pageHeight="1169" math="0" shadow="0">
      <root>
        <mxCell id="0" />
        <mxCell id="1" parent="0" />
        <mxCell id="Rv0RRqR60SKSk-l1LiFW-3" value="User" style="swimlane;fontStyle=1;childLayout=stackLayout;horizontal=1;startSize=30;horizontalStack=0;resizeParent=1;resizeParentMax=0;resizeLast=0;collapsible=1;marginBottom=0;strokeWidth=2;rounded=1;arcSize=0;fontSize=18;" vertex="1" parent="1">
          <mxGeometry x="-310" y="70" width="220" height="440" as="geometry">
            <mxRectangle x="230" y="660" width="90" height="30" as="alternateBounds" />
          </mxGeometry>
        </mxCell>
        <mxCell id="Rv0RRqR60SKSk-l1LiFW-4" value="id" style="text;strokeColor=none;fillColor=none;align=left;verticalAlign=middle;spacingLeft=4;spacingRight=4;overflow=hidden;points=[[0,0.5],[1,0.5]];portConstraint=eastwest;rotatable=0;fontSize=18;" vertex="1" parent="Rv0RRqR60SKSk-l1LiFW-3">
          <mxGeometry y="30" width="220" height="60" as="geometry" />
        </mxCell>
        <mxCell id="Rv0RRqR60SKSk-l1LiFW-6" value="displayName" style="text;strokeColor=none;fillColor=none;align=left;verticalAlign=middle;spacingLeft=4;spacingRight=4;overflow=hidden;points=[[0,0.5],[1,0.5]];portConstraint=eastwest;rotatable=0;fontSize=18;" vertex="1" parent="Rv0RRqR60SKSk-l1LiFW-3">
          <mxGeometry y="90" width="220" height="50" as="geometry" />
        </mxCell>
        <mxCell id="Rv0RRqR60SKSk-l1LiFW-7" value="email" style="text;strokeColor=none;fillColor=none;align=left;verticalAlign=middle;spacingLeft=4;spacingRight=4;overflow=hidden;points=[[0,0.5],[1,0.5]];portConstraint=eastwest;rotatable=0;fontSize=18;" vertex="1" parent="Rv0RRqR60SKSk-l1LiFW-3">
          <mxGeometry y="140" width="220" height="50" as="geometry" />
        </mxCell>
        <mxCell id="Rv0RRqR60SKSk-l1LiFW-9" value="password" style="text;strokeColor=none;fillColor=none;align=left;verticalAlign=middle;spacingLeft=4;spacingRight=4;overflow=hidden;points=[[0,0.5],[1,0.5]];portConstraint=eastwest;rotatable=0;fontSize=18;" vertex="1" parent="Rv0RRqR60SKSk-l1LiFW-3">
          <mxGeometry y="190" width="220" height="50" as="geometry" />
        </mxCell>
        <mxCell id="Rv0RRqR60SKSk-l1LiFW-8" value="avatar" style="text;strokeColor=none;fillColor=none;align=left;verticalAlign=middle;spacingLeft=4;spacingRight=4;overflow=hidden;points=[[0,0.5],[1,0.5]];portConstraint=eastwest;rotatable=0;fontSize=18;" vertex="1" parent="Rv0RRqR60SKSk-l1LiFW-3">
          <mxGeometry y="240" width="220" height="50" as="geometry" />
        </mxCell>
        <mxCell id="Rv0RRqR60SKSk-l1LiFW-10" value="verified" style="text;strokeColor=none;fillColor=none;align=left;verticalAlign=middle;spacingLeft=4;spacingRight=4;overflow=hidden;points=[[0,0.5],[1,0.5]];portConstraint=eastwest;rotatable=0;fontSize=18;" vertex="1" parent="Rv0RRqR60SKSk-l1LiFW-3">
          <mxGeometry y="290" width="220" height="50" as="geometry" />
        </mxCell>
        <mxCell id="Rv0RRqR60SKSk-l1LiFW-11" value="verifyCode" style="text;strokeColor=none;fillColor=none;align=left;verticalAlign=middle;spacingLeft=4;spacingRight=4;overflow=hidden;points=[[0,0.5],[1,0.5]];portConstraint=eastwest;rotatable=0;fontSize=18;" vertex="1" parent="Rv0RRqR60SKSk-l1LiFW-3">
          <mxGeometry y="340" width="220" height="50" as="geometry" />
        </mxCell>
        <mxCell id="Rv0RRqR60SKSk-l1LiFW-12" value="verifyCodeExpiredTime" style="text;strokeColor=none;fillColor=none;align=left;verticalAlign=middle;spacingLeft=4;spacingRight=4;overflow=hidden;points=[[0,0.5],[1,0.5]];portConstraint=eastwest;rotatable=0;fontSize=18;" vertex="1" parent="Rv0RRqR60SKSk-l1LiFW-3">
          <mxGeometry y="390" width="220" height="50" as="geometry" />
        </mxCell>
        <mxCell id="Rv0RRqR60SKSk-l1LiFW-13" value="Message" style="swimlane;fontStyle=1;childLayout=stackLayout;horizontal=1;startSize=30;horizontalStack=0;resizeParent=1;resizeParentMax=0;resizeLast=0;collapsible=1;marginBottom=0;strokeWidth=2;rounded=1;arcSize=0;fontSize=18;" vertex="1" parent="1">
          <mxGeometry x="650" y="-140" width="220" height="440" as="geometry">
            <mxRectangle x="230" y="660" width="90" height="30" as="alternateBounds" />
          </mxGeometry>
        </mxCell>
        <mxCell id="Rv0RRqR60SKSk-l1LiFW-14" value="id" style="text;strokeColor=none;fillColor=none;align=left;verticalAlign=middle;spacingLeft=4;spacingRight=4;overflow=hidden;points=[[0,0.5],[1,0.5]];portConstraint=eastwest;rotatable=0;fontSize=18;" vertex="1" parent="Rv0RRqR60SKSk-l1LiFW-13">
          <mxGeometry y="30" width="220" height="60" as="geometry" />
        </mxCell>
        <mxCell id="Rv0RRqR60SKSk-l1LiFW-17" value="from" style="text;strokeColor=none;fillColor=none;align=left;verticalAlign=middle;spacingLeft=4;spacingRight=4;overflow=hidden;points=[[0,0.5],[1,0.5]];portConstraint=eastwest;rotatable=0;fontSize=18;" vertex="1" parent="Rv0RRqR60SKSk-l1LiFW-13">
          <mxGeometry y="90" width="220" height="50" as="geometry" />
        </mxCell>
        <mxCell id="Rv0RRqR60SKSk-l1LiFW-18" value="to" style="text;strokeColor=none;fillColor=none;align=left;verticalAlign=middle;spacingLeft=4;spacingRight=4;overflow=hidden;points=[[0,0.5],[1,0.5]];portConstraint=eastwest;rotatable=0;fontSize=18;" vertex="1" parent="Rv0RRqR60SKSk-l1LiFW-13">
          <mxGeometry y="140" width="220" height="50" as="geometry" />
        </mxCell>
        <mxCell id="Rv0RRqR60SKSk-l1LiFW-33" value="type" style="text;strokeColor=none;fillColor=none;align=left;verticalAlign=middle;spacingLeft=4;spacingRight=4;overflow=hidden;points=[[0,0.5],[1,0.5]];portConstraint=eastwest;rotatable=0;fontSize=18;" vertex="1" parent="Rv0RRqR60SKSk-l1LiFW-13">
          <mxGeometry y="190" width="220" height="50" as="geometry" />
        </mxCell>
        <mxCell id="Rv0RRqR60SKSk-l1LiFW-15" value="text" style="text;strokeColor=none;fillColor=none;align=left;verticalAlign=middle;spacingLeft=4;spacingRight=4;overflow=hidden;points=[[0,0.5],[1,0.5]];portConstraint=eastwest;rotatable=0;fontSize=18;" vertex="1" parent="Rv0RRqR60SKSk-l1LiFW-13">
          <mxGeometry y="240" width="220" height="50" as="geometry" />
        </mxCell>
        <mxCell id="Rv0RRqR60SKSk-l1LiFW-16" value="link" style="text;strokeColor=none;fillColor=none;align=left;verticalAlign=middle;spacingLeft=4;spacingRight=4;overflow=hidden;points=[[0,0.5],[1,0.5]];portConstraint=eastwest;rotatable=0;fontSize=18;" vertex="1" parent="Rv0RRqR60SKSk-l1LiFW-13">
          <mxGeometry y="290" width="220" height="50" as="geometry" />
        </mxCell>
        <mxCell id="Rv0RRqR60SKSk-l1LiFW-34" value="avatar" style="text;strokeColor=none;fillColor=none;align=left;verticalAlign=middle;spacingLeft=4;spacingRight=4;overflow=hidden;points=[[0,0.5],[1,0.5]];portConstraint=eastwest;rotatable=0;fontSize=18;" vertex="1" parent="Rv0RRqR60SKSk-l1LiFW-13">
          <mxGeometry y="340" width="220" height="50" as="geometry" />
        </mxCell>
        <mxCell id="Rv0RRqR60SKSk-l1LiFW-35" value="replyMessage" style="text;strokeColor=none;fillColor=none;align=left;verticalAlign=middle;spacingLeft=4;spacingRight=4;overflow=hidden;points=[[0,0.5],[1,0.5]];portConstraint=eastwest;rotatable=0;fontSize=18;" vertex="1" parent="Rv0RRqR60SKSk-l1LiFW-13">
          <mxGeometry y="390" width="220" height="50" as="geometry" />
        </mxCell>
        <mxCell id="Rv0RRqR60SKSk-l1LiFW-36" value="" style="endArrow=classic;html=1;rounded=0;exitX=1;exitY=0.5;exitDx=0;exitDy=0;entryX=1;entryY=0.5;entryDx=0;entryDy=0;" edge="1" parent="Rv0RRqR60SKSk-l1LiFW-13" source="Rv0RRqR60SKSk-l1LiFW-35" target="Rv0RRqR60SKSk-l1LiFW-14">
          <mxGeometry width="50" height="50" relative="1" as="geometry">
            <mxPoint x="540" y="460" as="sourcePoint" />
            <mxPoint x="360" y="180" as="targetPoint" />
            <Array as="points">
              <mxPoint x="270" y="415" />
              <mxPoint x="270" y="60" />
            </Array>
          </mxGeometry>
        </mxCell>
        <mxCell id="Rv0RRqR60SKSk-l1LiFW-22" value="" style="endArrow=classic;html=1;rounded=0;exitX=0;exitY=0.5;exitDx=0;exitDy=0;entryX=1;entryY=0.5;entryDx=0;entryDy=0;" edge="1" parent="1" source="Rv0RRqR60SKSk-l1LiFW-18" target="Rv0RRqR60SKSk-l1LiFW-4">
          <mxGeometry width="50" height="50" relative="1" as="geometry">
            <mxPoint x="420" y="542.5" as="sourcePoint" />
            <mxPoint x="210" y="310" as="targetPoint" />
          </mxGeometry>
        </mxCell>
        <mxCell id="Rv0RRqR60SKSk-l1LiFW-23" value="" style="endArrow=classic;html=1;rounded=0;exitX=0;exitY=0.5;exitDx=0;exitDy=0;" edge="1" parent="1" source="Rv0RRqR60SKSk-l1LiFW-17">
          <mxGeometry width="50" height="50" relative="1" as="geometry">
            <mxPoint x="430" y="553" as="sourcePoint" />
            <mxPoint x="-90" y="130" as="targetPoint" />
          </mxGeometry>
        </mxCell>
        <mxCell id="Rv0RRqR60SKSk-l1LiFW-24" value="Group" style="swimlane;fontStyle=1;childLayout=stackLayout;horizontal=1;startSize=30;horizontalStack=0;resizeParent=1;resizeParentMax=0;resizeLast=0;collapsible=1;marginBottom=0;strokeWidth=2;rounded=1;arcSize=0;fontSize=18;" vertex="1" parent="1">
          <mxGeometry x="190" y="250" width="220" height="190" as="geometry">
            <mxRectangle x="230" y="660" width="90" height="30" as="alternateBounds" />
          </mxGeometry>
        </mxCell>
        <mxCell id="Rv0RRqR60SKSk-l1LiFW-25" value="id" style="text;strokeColor=none;fillColor=none;align=left;verticalAlign=middle;spacingLeft=4;spacingRight=4;overflow=hidden;points=[[0,0.5],[1,0.5]];portConstraint=eastwest;rotatable=0;fontSize=18;" vertex="1" parent="Rv0RRqR60SKSk-l1LiFW-24">
          <mxGeometry y="30" width="220" height="60" as="geometry" />
        </mxCell>
        <mxCell id="Rv0RRqR60SKSk-l1LiFW-26" value="groupName" style="text;strokeColor=none;fillColor=none;align=left;verticalAlign=middle;spacingLeft=4;spacingRight=4;overflow=hidden;points=[[0,0.5],[1,0.5]];portConstraint=eastwest;rotatable=0;fontSize=18;" vertex="1" parent="Rv0RRqR60SKSk-l1LiFW-24">
          <mxGeometry y="90" width="220" height="50" as="geometry" />
        </mxCell>
        <mxCell id="Rv0RRqR60SKSk-l1LiFW-30" value="members" style="text;strokeColor=none;fillColor=none;align=left;verticalAlign=middle;spacingLeft=4;spacingRight=4;overflow=hidden;points=[[0,0.5],[1,0.5]];portConstraint=eastwest;rotatable=0;fontSize=18;" vertex="1" parent="Rv0RRqR60SKSk-l1LiFW-24">
          <mxGeometry y="140" width="220" height="50" as="geometry" />
        </mxCell>
        <mxCell id="Rv0RRqR60SKSk-l1LiFW-31" value="" style="endArrow=classic;html=1;rounded=0;exitX=0;exitY=0.5;exitDx=0;exitDy=0;entryX=1;entryY=0.5;entryDx=0;entryDy=0;" edge="1" parent="1" source="Rv0RRqR60SKSk-l1LiFW-30" target="Rv0RRqR60SKSk-l1LiFW-4">
          <mxGeometry width="50" height="50" relative="1" as="geometry">
            <mxPoint x="414" y="775" as="sourcePoint" />
            <mxPoint x="124" y="660" as="targetPoint" />
          </mxGeometry>
        </mxCell>
        <mxCell id="Rv0RRqR60SKSk-l1LiFW-32" value="" style="endArrow=classic;html=1;rounded=0;entryX=1;entryY=0.5;entryDx=0;entryDy=0;exitX=0;exitY=0.5;exitDx=0;exitDy=0;" edge="1" parent="1" source="Rv0RRqR60SKSk-l1LiFW-18" target="Rv0RRqR60SKSk-l1LiFW-25">
          <mxGeometry width="50" height="50" relative="1" as="geometry">
            <mxPoint x="410" y="330" as="sourcePoint" />
            <mxPoint x="520" y="280" as="targetPoint" />
          </mxGeometry>
        </mxCell>
        <mxCell id="Rv0RRqR60SKSk-l1LiFW-37" value="Relationship" style="swimlane;fontStyle=1;childLayout=stackLayout;horizontal=1;startSize=30;horizontalStack=0;resizeParent=1;resizeParentMax=0;resizeLast=0;collapsible=1;marginBottom=0;strokeWidth=2;rounded=1;arcSize=0;fontSize=18;" vertex="1" parent="1">
          <mxGeometry x="-740" y="540" width="220" height="190" as="geometry">
            <mxRectangle x="230" y="660" width="90" height="30" as="alternateBounds" />
          </mxGeometry>
        </mxCell>
        <mxCell id="Rv0RRqR60SKSk-l1LiFW-38" value="id" style="text;strokeColor=none;fillColor=none;align=left;verticalAlign=middle;spacingLeft=4;spacingRight=4;overflow=hidden;points=[[0,0.5],[1,0.5]];portConstraint=eastwest;rotatable=0;fontSize=18;" vertex="1" parent="Rv0RRqR60SKSk-l1LiFW-37">
          <mxGeometry y="30" width="220" height="60" as="geometry" />
        </mxCell>
        <mxCell id="Rv0RRqR60SKSk-l1LiFW-39" value="users" style="text;strokeColor=none;fillColor=none;align=left;verticalAlign=middle;spacingLeft=4;spacingRight=4;overflow=hidden;points=[[0,0.5],[1,0.5]];portConstraint=eastwest;rotatable=0;fontSize=18;" vertex="1" parent="Rv0RRqR60SKSk-l1LiFW-37">
          <mxGeometry y="90" width="220" height="50" as="geometry" />
        </mxCell>
        <mxCell id="Rv0RRqR60SKSk-l1LiFW-40" value="status" style="text;strokeColor=none;fillColor=none;align=left;verticalAlign=middle;spacingLeft=4;spacingRight=4;overflow=hidden;points=[[0,0.5],[1,0.5]];portConstraint=eastwest;rotatable=0;fontSize=18;" vertex="1" parent="Rv0RRqR60SKSk-l1LiFW-37">
          <mxGeometry y="140" width="220" height="50" as="geometry" />
        </mxCell>
      </root>
    </mxGraphModel>
  </diagram>
</mxfile>
